<svg xmlns="http://www.w3.org/2000/svg" viewBox="0 0 1300 1000" font-family="-apple-system,Segoe UI,Roboto,Helvetica,Arial,sans-serif">
  <defs>
    <marker id="arr" viewBox="0 0 10 10" refX="9" refY="5" markerWidth="7" markerHeight="7" orient="auto-start-reverse">
      <path d="M0 0 L10 5 L0 10 z" fill="#475569"/>
    </marker>
    <marker id="arrW" viewBox="0 0 10 10" refX="9" refY="5" markerWidth="7" markerHeight="7" orient="auto-start-reverse">
      <path d="M0 0 L10 5 L0 10 z" fill="#2563eb"/>
    </marker>
    <marker id="arrR" viewBox="0 0 10 10" refX="9" refY="5" markerWidth="7" markerHeight="7" orient="auto-start-reverse">
      <path d="M0 0 L10 5 L0 10 z" fill="#16a34a"/>
    </marker>
    <style>
      .t  { font-size:13px; fill:#0f172a; }
      .s  { font-size:11px; fill:#475569; }
      .mono { font-family:ui-monospace,SFMono-Regular,Menlo,monospace; font-size:10.5px; fill:#334155; }
      .h  { font-size:13px; font-weight:700; }
      .lane { font-size:12px; font-weight:700; letter-spacing:.06em; }
      .box { rx:8; }
      .ew { stroke:#2563eb; }       /* write edges */
      .er { stroke:#16a34a; }       /* read edges  */
      .e  { stroke:#475569; }       /* neutral     */
    </style>
  </defs>

  <!-- title -->
  <text x="650" y="30" text-anchor="middle" font-size="20" font-weight="700" fill="#0f172a">kotoba — Datomic-over-IPFS storage engine</text>
  <text x="650" y="50" text-anchor="middle" class="s">Datom log (canonical) · EAVT/AEVT/AVET/VAET ProllyTree indexes · DAG-CBOR/IPLD blocks · tiered IPFS + B2 cold pin</text>

  <!-- ===================== CLIENTS ===================== -->
  <rect x="70"  y="72" width="500" height="56" rx="8" fill="#eff6ff" stroke="#2563eb"/>
  <text x="86" y="92" class="h" fill="#1d4ed8">WRITE / INSERT API  ·  kotoba-server/src/kg.rs</text>
  <text x="86" y="112" class="mono">kg.ingest · kg.ingest_batch · transact · quad.put  →  Datom{e,a,v,t,added}</text>

  <rect x="730" y="72" width="500" height="56" rx="8" fill="#f0fdf4" stroke="#16a34a"/>
  <text x="746" y="92" class="h" fill="#15803d">READ / QUERY API  ·  kotoba-server/src/kg.rs</text>
  <text x="746" y="112" class="mono">kg.query · kg.sparql · cypher · SQL dialects   (CACAO quad:read gate)</text>

  <!-- ===================== INSERT PATH ===================== -->
  <rect x="70" y="160" width="500" height="150" rx="10" fill="#ffffff" stroke="#2563eb" stroke-dasharray="3 3"/>
  <text x="86" y="180" class="lane" fill="#1d4ed8">① INSERT PATH</text>

  <rect x="86" y="192" width="468" height="34" rx="7" fill="#eff6ff" stroke="#93c5fd"/>
  <text x="98" y="206" class="t">QuadStore.assert_datom</text>
  <text x="98" y="220" class="mono">kotoba-graph/src/quad_store.rs · updates hot Arrangement + pending_datoms</text>

  <rect x="86" y="232" width="230" height="68" rx="7" fill="#eff6ff" stroke="#93c5fd"/>
  <text x="98" y="250" class="t">Hot Arrangement (in-mem)</text>
  <text x="98" y="266" class="mono">kotoba-kqe/arrangement.rs</text>
  <text x="98" y="280" class="mono">spo·pso·pos·ocp  =</text>
  <text x="98" y="293" class="mono">EAVT·AEVT·AVET·VAET</text>

  <rect x="324" y="232" width="230" height="68" rx="7" fill="#eef2ff" stroke="#a5b4fc"/>
  <text x="336" y="250" class="t">Journal · WAL (Merkle)</text>
  <text x="336" y="266" class="mono">kotoba-kse/src/journal.rs</text>
  <text x="336" y="280" class="mono">JournalEntry{seq,cid,prev}</text>
  <text x="336" y="293" class="mono">→ BlockStore.put (durable)</text>

  <!-- ===================== QUERY PATH ===================== -->
  <rect x="730" y="160" width="500" height="150" rx="10" fill="#ffffff" stroke="#16a34a" stroke-dasharray="3 3"/>
  <text x="746" y="180" class="lane" fill="#15803d">② QUERY PATH</text>

  <rect x="746" y="192" width="468" height="34" rx="7" fill="#f0fdf4" stroke="#86efac"/>
  <text x="758" y="206" class="t">Compile → DatalogProgram</text>
  <text x="758" y="220" class="mono">SparqlCompiler / CypherCompiler / SQL dialect  →  kotoba-kqe</text>

  <rect x="746" y="232" width="230" height="68" rx="7" fill="#f0fdf4" stroke="#86efac"/>
  <text x="758" y="250" class="t">Hot eval (semi-naive)</text>
  <text x="758" y="266" class="mono">evaluate_delta() over the</text>
  <text x="758" y="280" class="mono">hot Arrangement — µs–ms</text>
  <text x="758" y="293" class="mono">current_graph_deltas()</text>

  <rect x="984" y="232" width="230" height="68" rx="7" fill="#f0fdf4" stroke="#86efac"/>
  <text x="996" y="250" class="t">Cold scan + as-of</text>
  <text x="996" y="266" class="mono">ProllyTree.scan_prefix()</text>
  <text x="996" y="280" class="mono">index select EAVT/AEVT/…</text>
  <text x="996" y="293" class="mono">db_before · TEA history</text>

  <!-- ===================== COMMIT ENGINE ===================== -->
  <rect x="70" y="350" width="1160" height="210" rx="12" fill="#faf5ff" stroke="#7c3aed"/>
  <text x="90" y="372" class="lane" fill="#6d28d9">③ COMMIT ENGINE  ·  QuadStore.commit()  ·  kotoba-graph/src/quad_store.rs</text>

  <rect x="90" y="386" width="270" height="158" rx="8" fill="#ffffff" stroke="#a78bfa"/>
  <text x="104" y="406" class="h">ProllyTree builder</text>
  <text x="104" y="424" class="mono">kotoba-core/src/prolly.rs</text>
  <text x="104" y="442" class="s">parallel build / apply_batch:</text>
  <text x="104" y="458" class="mono">EAVT · AEVT · AVET · VAET</text>
  <text x="104" y="472" class="mono">+ datom_eavt/aevt/avet</text>
  <text x="104" y="486" class="mono">+ TEA (append-only ledger)</text>
  <text x="104" y="506" class="s">probabilistic chunking</text>
  <text x="104" y="520" class="mono">blake3(key)&amp;0xFF==0 (~1/256)</text>
  <text x="104" y="534" class="s">path-copy = delta-sized writes</text>

  <rect x="378" y="386" width="270" height="158" rx="8" fill="#ffffff" stroke="#a78bfa"/>
  <text x="392" y="406" class="h">DAG-CBOR / IPLD node</text>
  <text x="392" y="424" class="mono">ProllyNode{Leaf|Internal}</text>
  <text x="392" y="442" class="s">Leaf: [(key,value)] bytes</text>
  <text x="392" y="456" class="s">Internal: [(key, child CID)]</text>
  <text x="392" y="470" class="mono">child links = IPLD tag-42 CID</text>
  <text x="392" y="490" class="s">node CID:</text>
  <text x="392" y="504" class="mono">sha2-256(dag-cbor) → CIDv1</text>
  <text x="392" y="518" class="mono">codec 0x71 (dag-cbor)</text>
  <text x="392" y="534" class="s">content-addressed, immutable</text>

  <rect x="666" y="386" width="270" height="158" rx="8" fill="#ffffff" stroke="#a78bfa"/>
  <text x="680" y="406" class="h">Commit + CAR bundle</text>
  <text x="680" y="424" class="mono">kotoba-graph/src/commit.rs</text>
  <text x="680" y="444" class="mono">Commit{graph,tx_cid,root,</text>
  <text x="680" y="458" class="mono">  prev,author,seq,index_roots}</text>
  <text x="680" y="478" class="s">all tree blocks →</text>
  <text x="680" y="492" class="mono">CARv1 (car_bundle.rs)</text>
  <text x="680" y="512" class="s">one streaming durable PUT</text>
  <text x="680" y="528" class="mono">commit CID = blake3(cbor)</text>

  <rect x="954" y="386" width="262" height="158" rx="8" fill="#ffffff" stroke="#a78bfa"/>
  <text x="968" y="406" class="h">CommitDag + checkpoint</text>
  <text x="968" y="424" class="mono">CommitDag{commits,heads}</text>
  <text x="968" y="444" class="s">Merkle chain via prev →</text>
  <text x="968" y="458" class="s">full lineage / commits_since</text>
  <text x="968" y="478" class="mono">committed_seq → journal</text>
  <text x="968" y="492" class="s">checkpoint (survives restart:</text>
  <text x="968" y="506" class="mono">replay delta only)</text>
  <text x="968" y="528" class="s">head = per-graph root commit</text>

  <!-- ===================== STORAGE TIERS ===================== -->
  <rect x="70" y="600" width="1160" height="170" rx="12" fill="#fff7ed" stroke="#ea580c"/>
  <text x="90" y="622" class="lane" fill="#c2410c">④ BLOCK STORE  ·  TieredBlockStore&lt;BudgetedMemory, KuboIpfs&gt;  ·  kotoba-store/src/tiered_store.rs</text>

  <rect x="90" y="636" width="300" height="120" rx="8" fill="#ffffff" stroke="#fdba74"/>
  <text x="104" y="656" class="h">HOT tier</text>
  <text x="104" y="674" class="mono">BudgetedBlockStore&lt;Memory&gt;</text>
  <text x="104" y="690" class="s">LRU, byte-budget, µs latency</text>
  <text x="104" y="710" class="s">serves query hits; misses</text>
  <text x="104" y="724" class="s">promoted from cold on read</text>
  <text x="104" y="744" class="mono">put_many_durable (batch)</text>

  <rect x="410" y="636" width="360" height="120" rx="8" fill="#ffffff" stroke="#fdba74"/>
  <text x="424" y="656" class="h">COLD tier — IPFS (Kubo)</text>
  <text x="424" y="674" class="mono">KuboBlockStore · kubo_store.rs</text>
  <text x="424" y="690" class="mono">/api/v0/block/{put,get} · pin/add</text>
  <text x="424" y="706" class="s">CIDv1 sha2-256 · dag-cbor/raw</text>
  <text x="424" y="722" class="s">flatfs repo on external volume</text>
  <text x="424" y="742" class="mono">IPFS network · multihash-keyed</text>

  <rect x="790" y="636" width="426" height="120" rx="8" fill="#ecfeff" stroke="#06b6d4"/>
  <text x="804" y="656" class="h" fill="#0e7490">OFF-HOST cold pin — Backblaze B2  <tspan fill="#06b6d4" font-size="10">NEW</tspan></text>
  <text x="804" y="674" class="mono">50-infra/kotoba-b2-pin (DataLad + git-annex S3)</text>
  <text x="804" y="690" class="s">mirrors every local block (ipfs refs local)</text>
  <text x="804" y="706" class="s">incremental · drop-after-copy (no 3rd local copy)</text>
  <text x="804" y="722" class="mono">restore: annex get → ipfs block put</text>
  <text x="804" y="742" class="s">creds from 1Password at runtime (embedcreds=no)</text>

  <!-- ===================== ANCHORS ===================== -->
  <rect x="70" y="810" width="1160" height="120" rx="12" fill="#f8fafc" stroke="#64748b"/>
  <text x="90" y="832" class="lane" fill="#334155">⑤ CANONICAL STATE &amp; TRUST ANCHORS</text>

  <rect x="90" y="846" width="270" height="68" rx="8" fill="#ffffff" stroke="#cbd5e1"/>
  <text x="104" y="866" class="t">Datom log = canonical</text>
  <text x="104" y="882" class="mono">(E,A,V,T,Added) first-class</text>
  <text x="104" y="898" class="s">ADR-2605312345 · 非終末論 as-of</text>

  <rect x="378" y="846" width="270" height="68" rx="8" fill="#ffffff" stroke="#cbd5e1"/>
  <text x="392" y="866" class="t">IPNS signed heads</text>
  <text x="392" y="882" class="mono">graph root ← ed25519 / DID</text>
  <text x="392" y="898" class="s">disk-persistent, durable restart</text>

  <rect x="666" y="846" width="270" height="68" rx="8" fill="#ffffff" stroke="#cbd5e1"/>
  <text x="680" y="866" class="t">Base L2 trust anchor</text>
  <text x="680" y="882" class="s">commit-DAG root anchored on-chain</text>
  <text x="680" y="898" class="s">tamper-evident lineage</text>

  <rect x="954" y="846" width="262" height="68" rx="8" fill="#ffffff" stroke="#cbd5e1"/>
  <text x="968" y="866" class="t">AT-Proto MST</text>
  <text x="968" y="882" class="s">ingress / interop wire</text>
  <text x="968" y="898" class="s">materializes the Datom log</text>

  <!-- ===================== ARROWS ===================== -->
  <!-- clients to paths -->
  <path d="M320 128 L320 160" class="ew" stroke-width="2" fill="none" marker-end="url(#arrW)"/>
  <path d="M980 128 L980 160" class="er" stroke-width="2" fill="none" marker-end="url(#arrR)"/>

  <!-- insert internal -->
  <path d="M320 226 L201 232" class="ew" stroke-width="1.5" fill="none" marker-end="url(#arrW)"/>
  <path d="M320 226 L439 232" class="ew" stroke-width="1.5" fill="none" marker-end="url(#arrW)"/>

  <!-- query internal -->
  <path d="M980 226 L861 232" class="er" stroke-width="1.5" fill="none" marker-end="url(#arrR)"/>
  <path d="M980 226 L1099 232" class="er" stroke-width="1.5" fill="none" marker-end="url(#arrR)"/>

  <!-- insert path -> commit engine -->
  <path d="M320 310 L320 350" class="ew" stroke-width="2" fill="none" marker-end="url(#arrW)"/>
  <text x="328" y="338" class="s" fill="#1d4ed8">commit()</text>

  <!-- query hot -> arrangement (read uses hot directly; dashed up) -->
  <path d="M861 300 C861 325 320 300 320 268" class="er" stroke-width="1.3" fill="none" stroke-dasharray="4 3" marker-end="url(#arrR)"/>
  <text x="560" y="312" class="s" fill="#15803d">read hot Arrangement</text>

  <!-- query cold -> commit engine/prolly -->
  <path d="M1099 300 L1099 350" class="er" stroke-width="2" fill="none" marker-end="url(#arrR)"/>
  <text x="1107" y="338" class="s" fill="#15803d">cold scan</text>

  <!-- commit engine internal L->R -->
  <path d="M360 465 L378 465" class="e" stroke-width="1.5" fill="none" marker-end="url(#arr)"/>
  <path d="M648 465 L666 465" class="e" stroke-width="1.5" fill="none" marker-end="url(#arr)"/>
  <path d="M936 465 L954 465" class="e" stroke-width="1.5" fill="none" marker-end="url(#arr)"/>

  <!-- commit engine -> storage -->
  <path d="M650 560 L650 600" class="e" stroke-width="2" fill="none" marker-end="url(#arr)"/>
  <text x="658" y="588" class="s">put_many_durable (hot sync + cold async)</text>

  <!-- storage hot<->cold, cold->b2 -->
  <path d="M390 696 L410 696" class="e" stroke-width="1.5" fill="none" marker-end="url(#arr)"/>
  <path d="M770 696 L790 696" stroke="#06b6d4" stroke-width="2" fill="none" marker-end="url(#arr)"/>
  <text x="700" y="620" class="s" fill="#0e7490">refs local → mirror</text>

  <!-- commit dag -> anchors -->
  <path d="M1085 544 C1085 770 225 770 225 846" class="e" stroke-width="1.3" fill="none" stroke-dasharray="4 3" marker-end="url(#arr)"/>
  <path d="M1085 544 L513 846" class="e" stroke-width="1.1" fill="none" stroke-dasharray="4 3" marker-end="url(#arr)"/>
  <path d="M1085 544 L801 846" class="e" stroke-width="1.1" fill="none" stroke-dasharray="4 3" marker-end="url(#arr)"/>
</svg>
